# xmcd CD database file
#
# Track frame offsets:
#	150
#	19655
#	51347
#	73567
#	94687
#	115637
#	134560
#	157622
#	179897
#	196020
#
# Disc length: 2984 seconds
#
# Revision: 2
# Processed by: cddbd v1.5PL3 Copyright (c) Steve Scherf et al.
# Submitted via: CDex 1.51
#
DISCID=800ba60a
DTITLE=Booker T. Laury - Nothin' But The Blues
DYEAR=1994
DGENRE=Blues
TTITLE0=The Slop Jar Story
TTITLE1=Introduction to the Blues - That's All Right for You
TTITLE2=Early in the Morning
TTITLE3=Woke Up this Morning
TTITLE4=D.B. Blues
TTITLE5=Disco Strut
TTITLE6=Sweet Root Man
TTITLE7=Booker's Boogie
TTITLE8=Blues with a Feeling
TTITLE9=Blues on the Prowl
EXTD=YEAR: 1994
EXTT0=
EXTT1=
EXTT2=
EXTT3=
EXTT4=
EXTT5=
EXTT6=
EXTT7=
EXTT8=
EXTT9=
PLAYORDER=
